<svg width="32" height="32" viewBox="0 0 32 32" fill="none" xmlns="http://www.w3.org/2000/svg">
<path d="M25.3243 18.4851C24.9175 9.40971 17.0094 0.620945 16.6569 0.238825C16.6569 0.238825 16.6569 0.238825 16.6117 0.238825L16.5033 0.114636L16.3858 0.038212H15.8796L15.7079 0H15.6627L15.5 0.114636L15.4006 0.200613C15.4006 0.200613 15.4006 0.200613 15.3554 0.200613C15.003 0.620945 7.09478 9.41926 6.67 18.4851C6.6655 18.5518 6.6655 18.6189 6.67 18.6857C6.67 19.0296 6.67 19.3735 6.67 19.7269C7.01344 29.5665 15.7079 31.9739 15.7802 31.993H16.0062C16.0812 32.0023 16.1571 32.0023 16.2321 31.993C16.3135 31.993 24.9989 29.5188 25.3333 19.7269C25.3333 19.3735 25.3333 19.0296 25.3333 18.6857C25.3333 18.6188 25.3243 18.5519 25.3243 18.4851ZM9.05601 15.132C10.8612 16.772 12.9023 18.0974 15.1024 19.0582V23.4049C12.8881 22.2489 9.48079 20.195 8.47758 18.3895C8.55897 17.2871 8.74365 16.1959 9.02889 15.132H9.05601ZM10.8636 10.2599C12.0457 11.5651 13.496 12.5653 15.1024 13.1831V16.947C13.083 16.0461 11.2431 14.7496 9.67962 13.1258C10.0234 12.1479 10.4187 11.1912 10.8636 10.2599ZM22.3508 13.1258C20.788 14.7505 18.9479 16.0471 16.928 16.947V13.1831C18.5214 12.5601 19.9589 11.5602 21.1307 10.2599C21.5866 11.1779 21.9939 12.1219 22.3508 13.0876V13.1258ZM16.928 11.1579V3.5155C18.1359 5.08129 19.2383 6.73485 20.2269 8.46396C19.3552 9.6354 18.2129 10.55 16.91 11.1197L16.928 11.1579ZM16.928 23.424V19.0582C19.1364 18.106 21.1868 16.787 23.0015 15.1511C23.2784 16.219 23.454 17.3135 23.5257 18.4182C22.5315 20.195 19.1242 22.2394 16.91 23.3857L16.928 23.424ZM15.1204 11.1579C13.8115 10.5809 12.6681 9.65222 11.8035 8.46396C12.7903 6.71844 13.8927 5.04887 15.1024 3.46774L15.1204 11.1579ZM8.66738 21.4083C10.644 23.05 12.8055 24.4265 15.1024 25.5065V29.7098C13.4592 29.0042 12.0095 27.8747 10.8854 26.4246C9.76136 24.9745 8.99881 23.2499 8.66738 21.4083ZM16.91 29.7194V25.497C19.2087 24.4248 21.3707 23.0511 23.345 21.4083C23.0276 23.2569 22.2704 24.9898 21.1446 26.4437C20.0189 27.8977 18.5616 29.025 16.91 29.7194Z" fill="#2D3440"/>
</svg>
